<svg width="64" height="64" viewBox="0 0 64 64" fill="none" xmlns="http://www.w3.org/2000/svg">
<g clip-path="url(#clip0_20_11)">
<path d="M21.3333 29.3333C24.8695 29.3333 28.2609 27.9286 30.7614 25.4281C33.2619 22.9276 34.6667 19.5362 34.6667 16C34.6667 12.4638 33.2619 9.0724 30.7614 6.57191C28.2609 4.07143 24.8695 2.66667 21.3333 2.66667C17.7971 2.66667 14.4057 4.07143 11.9052 6.57191C9.40475 9.0724 7.99999 12.4638 7.99999 16C7.99999 19.5362 9.40475 22.9276 11.9052 25.4281C14.4057 27.9286 17.7971 29.3333 21.3333 29.3333ZM21.3333 29.3333C26.7013 29.3333 31.392 31.36 34.728 34.728C36.7062 36.733 38.186 39.1745 39.048 41.856M21.3333 29.3333C10.6667 29.3333 2.66666 37.3333 2.66666 48V61.3333H29.3333M32 50.1973L43.1733 58.6667L61.3333 34.6667" stroke="#0F1419" stroke-width="5.33333"/>
</g>
<defs>
<clipPath id="clip0_20_11">
<rect width="64" height="64" fill="white"/>
</clipPath>
</defs>
</svg>
