<svg width="64" height="64" viewBox="0 0 64 64" fill="none" xmlns="http://www.w3.org/2000/svg">
<g clip-path="url(#clip0_20_15)">
<path fill-rule="evenodd" clip-rule="evenodd" d="M31.5 53.3333C34.02 53.3333 35.875 51.3067 35.875 48.8533C35.875 46.3644 33.985 44.4089 31.5 44.4089C29.05 44.4089 27.09 46.3289 27.09 48.8533C27.09 51.3422 29.05 53.3333 31.5 53.3333ZM6.99999 7.11112H56V56.8889H6.99999V7.11112ZM62.5 64L63 0L1.54972e-06 1.94311e-05L0 64H62.5Z" fill="#0F1419"/>
<path d="M31.465 10.6667C25.27 10.6667 21.035 14.7556 19.46 19.52L25.2 21.9733C25.97 19.5911 27.79 16.7111 31.5 16.7111C37.17 16.7111 38.29 22.1156 36.295 24.9956C34.405 27.7333 31.15 29.5822 29.435 32.6755C28.07 35.1289 28.35 37.9733 28.35 39.7155H34.72C34.72 36.4089 34.965 35.7333 35.49 34.7022C36.855 32.1422 39.375 30.9333 42.035 26.9867C44.415 23.4311 43.505 18.5956 41.965 16.0356C40.18 13.0489 36.645 10.6667 31.465 10.6667Z" fill="#0F1419"/>
</g>
<defs>
<clipPath id="clip0_20_15">
<rect width="64" height="64" fill="white"/>
</clipPath>
</defs>
</svg>
