<svg width="32" height="32" viewBox="0 0 32 32" fill="none" xmlns="http://www.w3.org/2000/svg">
<g clip-path="url(#clip0_2_39)">
<path d="M16 3.33334C15.4864 3.3336 14.9925 3.53145 14.6208 3.88589C14.2491 4.24033 14.028 4.7242 14.0033 5.23723C13.9786 5.75026 14.1522 6.25312 14.4882 6.64161C14.8242 7.03011 15.2968 7.27445 15.808 7.32401L16 7.33334H22.6666C22.8227 7.33329 22.9738 7.38797 23.0937 7.48786C23.2135 7.58775 23.2946 7.72652 23.3226 7.88001L23.3333 8.00001V24C23.3334 24.156 23.2787 24.3072 23.1788 24.427C23.0789 24.5469 22.9401 24.6279 22.7866 24.656L22.6666 24.6667H16.6666C16.153 24.6669 15.6592 24.8648 15.2875 25.2192C14.9157 25.5737 14.6946 26.0575 14.6699 26.5706C14.6453 27.0836 14.8189 27.5865 15.1549 27.9749C15.4909 28.3634 15.9634 28.6078 16.4746 28.6573L16.6666 28.6667H22.6666C23.8601 28.6668 25.0082 28.2096 25.8749 27.3893C26.7417 26.5689 27.2612 25.4476 27.3266 24.256L27.3333 24V8.00001C27.3334 6.80659 26.8763 5.65848 26.0559 4.79174C25.2355 3.92499 24.1143 3.40548 22.9226 3.34001L22.6666 3.33334H16ZM13.4133 10.8133C13.0509 10.4497 12.5626 10.2393 12.0493 10.2257C11.5361 10.2121 11.0373 10.3965 10.6563 10.7405C10.2752 11.0846 10.041 11.562 10.0023 12.074C9.96349 12.5859 10.1231 13.0932 10.448 13.4907L10.5853 13.6427L10.9426 14H5.33331C4.81969 14.0003 4.32585 14.1981 3.95413 14.5526C3.58241 14.907 3.3613 15.3909 3.33661 15.9039C3.31193 16.4169 3.48557 16.9198 3.82155 17.3083C4.15752 17.6968 4.63009 17.9411 5.14131 17.9907L5.33331 18H10.9426L10.5853 18.3573C10.2216 18.7197 10.0112 19.2081 9.99767 19.7213C9.98411 20.2345 10.1685 20.7333 10.5125 21.1144C10.8566 21.4955 11.334 21.7296 11.8459 21.7684C12.3579 21.8072 12.8651 21.6476 13.2626 21.3227L13.4146 21.1853L17.1853 17.4147C17.5356 17.0646 17.7436 16.597 17.769 16.1024C17.7943 15.6078 17.6353 15.1214 17.3226 14.7373L17.1853 14.5853L13.4146 10.8147L13.4133 10.8133Z" fill="white"/>
</g>
<defs>
<clipPath id="clip0_2_39">
<rect width="32" height="32" fill="white" transform="matrix(-1 0 0 1 32 0)"/>
</clipPath>
</defs>
</svg>
