<svg width="64" height="64" viewBox="0 0 64 64" fill="none" xmlns="http://www.w3.org/2000/svg">
<path d="M32 9C32.7956 9 33.5587 9.31607 34.1213 9.87868C34.6839 10.4413 35 11.2044 35 12V29H52C52.7956 29 53.5587 29.3161 54.1213 29.8787C54.6839 30.4413 55 31.2044 55 32C55 32.7956 54.6839 33.5587 54.1213 34.1213C53.5587 34.6839 52.7956 35 52 35H35V52C35 52.7956 34.6839 53.5587 34.1213 54.1213C33.5587 54.6839 32.7956 55 32 55C31.2044 55 30.4413 54.6839 29.8787 54.1213C29.3161 53.5587 29 52.7956 29 52V35H12C11.2044 35 10.4413 34.6839 9.87868 34.1213C9.31607 33.5587 9 32.7956 9 32C9 31.2044 9.31607 30.4413 9.87868 29.8787C10.4413 29.3161 11.2044 29 12 29H29V12C29 11.2044 29.3161 10.4413 29.8787 9.87868C30.4413 9.31607 31.2044 9 32 9Z" fill="#FF7A00"/>
</svg>
