<svg width="64" height="64" viewBox="0 0 64 64" fill="none" xmlns="http://www.w3.org/2000/svg">
<path d="M50.6667 21.3333H13.3333C8.90667 21.3333 5.33333 24.9067 5.33333 29.3333V40C5.33333 42.9333 7.73333 45.3333 10.6667 45.3333H16V50.6667C16 53.6 18.4 56 21.3333 56H42.6667C45.6 56 48 53.6 48 50.6667V45.3333H53.3333C56.2667 45.3333 58.6667 42.9333 58.6667 40V29.3333C58.6667 24.9067 55.0933 21.3333 50.6667 21.3333ZM40 50.6667H24C22.5333 50.6667 21.3333 49.4667 21.3333 48V37.3333H42.6667V48C42.6667 49.4667 41.4667 50.6667 40 50.6667ZM50.6667 32C49.2 32 48 30.8 48 29.3333C48 27.8667 49.2 26.6667 50.6667 26.6667C52.1333 26.6667 53.3333 27.8667 53.3333 29.3333C53.3333 30.8 52.1333 32 50.6667 32ZM45.3333 8H18.6667C17.2 8 16 9.2 16 10.6667V16C16 17.4667 17.2 18.6667 18.6667 18.6667H45.3333C46.8 18.6667 48 17.4667 48 16V10.6667C48 9.2 46.8 8 45.3333 8Z" fill="#FF7A00"/>
</svg>
